<?xml version="1.0" standalone="no"?>
<!DOCTYPE svg PUBLIC "-//W3C//DTD SVG 20010904//EN"
 "http://www.w3.org/TR/2001/REC-SVG-20010904/DTD/svg10.dtd">
<svg version="1.0" xmlns="http://www.w3.org/2000/svg"
 width="500.000000pt" height="500.000000pt" viewBox="0 0 500.000000 500.000000"
 preserveAspectRatio="xMidYMid meet">
<metadata>
Created by potrace 1.14, written by Peter Selinger 2001-2017
</metadata>
<g transform="translate(0.000000,500.000000) scale(0.100000,-0.100000)"
fill="#000000" stroke="none">
<path d="M1220 4245 c0 -7 -32 -10 -85 -9 -72 1 -85 -1 -86 -15 -1 -23 -1
-523 0 -543 1 -13 10 -16 44 -14 53 3 75 14 56 28 -11 7 -11 11 -1 15 6 2 9 9
6 15 -11 17 -10 168 1 168 6 0 4 4 -4 9 -9 6 -10 10 -2 16 9 5 9 10 1 20 -8
10 -8 15 0 20 8 5 8 10 0 20 -8 10 -8 15 0 20 6 4 7 12 3 18 -7 11 -8 23 -4
98 l1 25 1354 0 c745 -1 1358 -4 1362 -8 4 -4 1 -14 -6 -23 -7 -8 -8 -15 -3
-15 9 0 8 -103 -1 -119 -4 -5 -2 -12 4 -16 5 -3 10 -11 10 -16 0 -6 -5 -7 -12
-3 -7 5 -8 3 -4 -5 12 -19 14 -121 3 -114 -6 4 -7 1 -2 -7 5 -8 9 -43 9 -79
l1 -66 40 -1 c22 0 45 5 50 10 13 14 15 66 3 66 -5 0 -6 5 -2 12 10 16 11 118
1 118 -5 0 -5 5 -1 12 11 18 12 68 2 68 -5 0 -6 5 -2 12 11 18 10 148 -1 151
-7 3 -6 9 0 18 15 19 11 97 -5 112 -7 7 -10 8 -7 2 3 -7 -61 -10 -184 -10
-104 0 -189 4 -189 8 0 5 -6 5 -12 0 -18 -11 -380 -11 -395 0 -7 5 -13 6 -13
1 0 -5 -23 -9 -50 -10 -28 0 -50 4 -50 8 0 5 -5 6 -12 2 -17 -11 -108 -12
-114 -2 -3 4 -11 5 -17 1 -16 -10 -77 -10 -83 -1 -3 5 -11 5 -17 1 -17 -10
-118 -10 -124 0 -3 4 -10 4 -16 -1 -14 -10 -27 -10 -44 1 -7 5 -13 4 -13 0 0
-10 -150 -10 -167 0 -6 4 -14 4 -17 -1 -6 -9 -67 -9 -83 1 -6 4 -14 4 -16 -1
-6 -9 -108 -9 -123 1 -6 3 -14 3 -18 -1 -11 -10 -40 -9 -48 3 -5 7 -8 7 -8 0
0 -12 -148 -14 -166 -2 -6 3 -14 3 -18 0 -11 -11 -46 -10 -46 1 0 7 -3 8 -8 1
-9 -12 -202 -14 -202 -2 0 4 -5 5 -12 1 -17 -11 -148 -12 -148 -2 0 5 -5 6
-12 2 -19 -12 -148 -12 -148 0 0 7 -3 7 -8 1 -10 -14 -32 -17 -32 -4 0 6 -5 7
-12 2 -18 -11 -82 -10 -90 2 -5 7 -8 6 -8 0z"/>
<path d="M1270 4042 c-18 -6 -45 -32 -33 -32 4 0 9 -13 9 -30 1 -20 -2 -27
-10 -23 -8 5 -8 3 0 -8 15 -19 16 -82 2 -73 -7 5 -8 2 -2 -7 5 -8 9 -57 9
-109 l1 -95 1249 -1 c688 0 1255 2 1260 5 16 9 14 367 -2 369 -24 3 -38 3 -65
-1 -16 -2 -28 0 -28 6 0 7 -4 7 -12 -1 -7 -7 -17 -8 -28 -2 -9 5 -22 5 -30 0
-8 -5 -21 -5 -30 0 -9 5 -22 5 -30 0 -9 -5 -19 -5 -27 2 -7 6 -13 6 -13 1 0
-5 -9 -9 -20 -9 -11 0 -20 4 -20 9 0 5 -6 5 -13 -1 -8 -7 -18 -7 -27 -2 -8 5
-21 5 -30 0 -9 -5 -22 -5 -30 0 -8 5 -22 4 -32 -1 -13 -7 -18 -6 -18 2 0 8 -4
8 -13 1 -8 -7 -18 -7 -27 -2 -8 5 -21 5 -31 -1 -12 -6 -19 -5 -22 4 -3 9 -7 9
-19 0 -10 -9 -18 -9 -25 -2 -8 8 -13 8 -17 0 -5 -8 -13 -8 -27 -1 -10 6 -19 7
-19 3 0 -10 -41 -10 -57 0 -7 4 -15 3 -18 -3 -5 -8 -11 -8 -20 0 -9 8 -15 8
-20 0 -4 -7 -12 -7 -26 0 -12 7 -19 7 -19 1 0 -7 -8 -7 -22 -2 -13 5 -32 5
-43 1 -11 -4 -27 -4 -36 1 -8 4 -21 4 -29 -1 -8 -5 -21 -5 -30 0 -9 5 -22 5
-30 0 -9 -5 -19 -5 -27 2 -8 6 -13 6 -13 1 0 -11 -29 -11 -48 1 -7 4 -12 2
-12 -4 0 -7 -6 -8 -18 -1 -11 6 -24 6 -32 1 -9 -5 -19 -5 -27 2 -9 7 -13 7
-13 -2 0 -10 -3 -10 -15 0 -11 9 -15 9 -15 1 0 -8 -5 -9 -18 -2 -11 6 -24 6
-32 1 -9 -5 -19 -5 -27 2 -9 7 -13 7 -13 -1 0 -8 -5 -9 -18 -2 -11 6 -24 6
-32 1 -9 -5 -19 -5 -27 2 -8 6 -13 7 -13 1 0 -6 -12 -8 -27 -6 -59 8 -95 8
-100 0 -3 -4 -11 -3 -18 3 -9 8 -15 8 -20 0 -4 -7 -12 -7 -26 0 -10 6 -19 7
-19 3 0 -10 -41 -10 -57 0 -7 4 -15 3 -18 -3 -5 -8 -11 -8 -20 0 -9 8 -15 8
-20 0 -4 -7 -12 -7 -26 0 -12 7 -19 7 -19 1 0 -7 -8 -7 -24 -1 -13 5 -26 7
-28 4 -10 -9 -68 -11 -68 -1 0 6 -5 5 -13 -2 -10 -8 -17 -7 -25 1 -7 7 -12 8
-12 2 0 -5 -9 -10 -20 -10 -11 0 -20 4 -20 9 0 5 -7 4 -15 -3 -12 -10 -15 -10
-15 0 0 9 -3 10 -13 1 -10 -8 -17 -7 -25 1 -7 7 -12 8 -12 2 0 -5 -9 -10 -20
-10 -11 0 -20 4 -20 9 0 5 -6 5 -13 -2 -10 -8 -17 -7 -25 1 -7 7 -12 8 -12 2
0 -12 -29 -12 -48 0 -6 4 -12 3 -12 -1 0 -5 -9 -9 -20 -9 -11 0 -20 5 -20 10
0 6 -5 5 -12 -2 -8 -8 -17 -8 -31 -1 -15 9 -18 8 -11 -3 6 -11 5 -11 -9 1 -9
7 -17 9 -17 4 0 -5 -9 -9 -20 -9 -11 0 -20 4 -20 9 0 5 -6 5 -13 -1 -8 -7 -18
-7 -27 -2 -8 5 -21 5 -31 -1 -10 -5 -19 -5 -21 0 -2 4 -10 6 -18 3z"/>
<path d="M1070 3547 c0 -5 -4 -5 -10 -2 -5 3 -10 0 -11 -7 -5 -74 0 -1028 5
-1037 4 -6 3 -11 -1 -11 -5 0 -9 -9 -9 -20 0 -11 4 -20 9 -20 4 0 5 -5 2 -11
-6 -9 -9 -107 -6 -225 l1 -41 213 0 213 1 -1 43 c0 24 4 43 9 43 8 0 8 3 1 8
-14 9 -14 65 0 74 6 5 6 8 -2 8 -7 0 -13 5 -13 11 0 5 5 7 12 3 7 -5 8 -3 2 7
-12 20 -13 91 -1 107 6 8 6 12 0 12 -13 0 -11 93 2 102 6 5 6 8 -2 8 -12 0
-12 17 0 38 5 6 4 12 0 12 -5 0 -9 23 -9 50 0 28 4 50 9 50 4 0 5 5 1 12 -12
19 -11 158 1 158 7 0 6 3 0 8 -6 4 -11 39 -11 79 1 39 3 70 5 67 2 -2 10 1 18
7 7 6 13 7 13 2 0 -5 7 -10 15 -10 8 0 15 4 15 9 0 5 9 4 20 -2 11 -6 20 -7
20 -3 0 4 11 8 25 8 14 0 25 -4 25 -8 0 -5 5 -5 11 -1 17 10 61 11 82 1 9 -4
17 -4 17 0 0 4 11 8 25 8 14 0 25 -4 25 -8 0 -4 8 -4 18 0 20 10 64 9 81 -1 6
-4 11 -2 11 3 0 6 6 10 12 8 10 -1 13 51 13 228 l0 230 -108 5 c-67 3 -109 1
-111 -5 -3 -6 -9 -4 -14 4 -5 7 -12 9 -15 4 -3 -5 -31 -6 -62 -3 -31 3 -58 4
-60 1 -2 -3 -111 -4 -244 -1 -133 3 -241 1 -241 -3z"/>
<path d="M2076 3553 c-4 -4 -24 -6 -45 -4 l-39 2 0 -230 c0 -185 3 -232 14
-242 11 -9 14 -9 14 1 0 10 3 10 15 0 12 -10 15 -10 15 0 0 10 3 10 15 0 12
-10 15 -10 15 0 0 10 3 10 15 0 12 -10 15 -10 15 1 0 10 3 10 12 1 8 -8 15 -8
24 -1 9 7 14 4 19 -11 9 -28 10 -314 1 -328 -3 -6 0 -13 6 -16 8 -4 9 -8 3
-11 -6 -3 -9 -22 -7 -42 3 -25 1 -34 -7 -29 -6 4 -11 2 -11 -4 0 -6 -5 -8 -12
-4 -19 12 -48 12 -48 0 0 -6 -5 -5 -12 2 -9 9 -15 9 -26 -1 -11 -9 -16 -9 -19
-1 -2 7 -12 10 -23 7 -17 -5 -18 -18 -17 -209 1 -130 -2 -204 -8 -204 -7 0 -7
-3 0 -8 6 -4 10 -16 10 -27 0 -20 7 -20 370 -20 235 0 373 -4 377 -10 5 -6 8
-6 8 2 0 7 9 10 21 8 19 -4 21 0 17 35 -2 22 -1 40 3 40 8 0 5 32 -5 48 -4 6
-4 12 1 12 12 0 10 104 -2 112 -7 5 -6 8 1 8 7 0 8 17 4 50 -4 28 -4 50 -1 50
7 0 4 87 -3 105 -4 12 -46 13 -65 0 -6 -3 -11 -2 -11 3 0 5 -7 9 -15 9 -8 0
-15 -4 -15 -9 0 -5 -6 -6 -12 -1 -7 4 -23 6 -34 5 -20 -3 -21 1 -20 62 0 37
-3 66 -7 66 -5 0 -5 5 -1 11 10 16 11 149 1 149 -5 0 -5 5 -1 12 9 14 9 96 0
105 -3 3 2 12 12 20 9 8 11 11 3 7 -9 -5 -12 -3 -7 4 5 8 13 9 25 3 10 -6 23
-6 31 -1 9 5 19 5 27 -2 10 -8 13 -7 13 3 0 10 3 10 12 1 8 -8 15 -9 25 -1 9
8 13 8 13 1 0 -6 7 -9 16 -5 12 4 15 17 12 49 -2 24 -1 44 2 44 10 0 5 125 -5
132 -7 5 -7 8 0 8 11 0 11 172 0 190 -3 5 -2 10 3 10 6 0 8 9 5 20 -5 19 -13
20 -114 19 -59 0 -112 2 -118 5 -5 3 -12 0 -15 -6 -5 -11 -7 -11 -12 0 -3 6
-10 10 -15 7 -11 -8 -416 -8 -427 -1 -5 3 -12 2 -16 -1z"/>
<path d="M3050 3553 c0 -4 -44 -8 -97 -8 l-98 0 0 -55 c0 -43 5 -60 25 -84 14
-17 34 -42 45 -55 11 -13 30 -34 43 -47 12 -13 22 -25 22 -28 0 -3 12 -18 28
-34 15 -16 46 -51 69 -78 22 -27 51 -59 62 -71 12 -12 21 -27 21 -33 0 -6 5
-8 10 -5 6 3 10 1 10 -4 0 -6 8 -19 18 -30 9 -10 34 -38 54 -62 20 -24 46 -55
58 -68 26 -31 25 -37 -7 -71 -16 -16 -41 -45 -58 -65 -28 -35 -64 -76 -121
-137 -14 -16 -23 -28 -20 -28 3 0 -7 -13 -22 -28 -15 -16 -47 -53 -72 -82 -25
-30 -63 -75 -85 -100 -21 -25 -48 -55 -58 -67 -28 -31 -31 -126 -5 -142 10 -6
18 -8 18 -4 0 5 237 8 527 7 291 -1 534 1 540 3 9 4 10 10 3 23 -5 9 -7 19 -5
21 9 10 13 59 4 65 -5 3 -7 10 -4 15 11 16 13 79 3 79 -5 0 -6 6 -2 12 11 17
12 118 1 118 -4 0 -5 5 -1 12 11 17 11 88 1 88 -5 0 -6 4 -3 8 6 10 -107 8
-124 -3 -8 -5 -11 -4 -7 2 5 7 -20 10 -73 8 -75 -3 -109 6 -75 19 8 3 15 10
15 15 0 6 12 23 28 39 58 61 92 102 92 111 0 5 7 11 15 15 8 3 15 13 15 21 0
9 5 13 10 10 16 -10 12 5 -9 31 -10 13 -21 20 -25 17 -3 -3 -6 1 -6 9 0 9 -7
18 -15 22 -8 3 -15 10 -15 16 0 7 -18 29 -41 51 -22 21 -37 39 -33 39 4 0 -6
11 -21 25 -37 31 -28 34 105 31 58 -1 113 2 124 7 12 6 16 5 12 -1 -4 -6 2
-10 14 -9 15 1 20 7 17 19 -3 10 -1 18 4 18 6 0 5 8 -1 20 -6 11 -7 20 -2 20
8 0 8 50 2 85 -2 6 -1 12 0 15 6 15 4 120 -3 120 -5 0 -5 5 -1 12 11 17 11
108 0 108 -4 0 -3 6 3 14 18 22 -6 26 -165 25 -79 0 -149 3 -153 6 -5 3 -12
-1 -14 -7 -4 -10 -8 -10 -15 1 -6 8 -12 9 -16 3 -3 -5 -22 -6 -45 -2 -26 5
-42 3 -46 -4 -3 -8 -7 -7 -11 2 -3 6 -10 10 -15 6 -12 -7 -408 -6 -420 1 -5 4
-9 3 -9 -2z"/>
<path d="M1076 2062 c-4 -7 -12 -10 -17 -6 -12 7 -6 -52 11 -109 6 -20 8 -42
4 -49 -4 -7 -3 -8 4 -4 8 5 12 -1 12 -18 0 -14 5 -28 11 -31 6 -4 8 -13 5 -21
-3 -8 -1 -14 5 -14 6 0 7 -4 4 -10 -3 -5 -2 -10 2 -10 5 0 15 -20 22 -45 7
-25 17 -45 22 -45 5 0 9 -9 9 -20 0 -11 4 -20 8 -20 5 0 14 -16 22 -35 8 -19
17 -35 21 -35 3 0 12 -13 19 -30 7 -16 16 -27 21 -24 5 3 9 -2 9 -10 0 -9 5
-16 12 -16 6 0 9 -3 5 -6 -6 -6 50 -70 117 -132 22 -21 48 -45 58 -54 10 -10
22 -18 28 -18 5 0 13 -6 17 -14 4 -7 19 -19 32 -26 14 -7 30 -17 35 -21 28
-23 86 -58 86 -51 0 4 4 2 8 -3 4 -6 24 -19 45 -30 20 -11 37 -24 37 -28 0 -5
7 -7 15 -3 8 3 15 2 15 -2 0 -5 16 -14 35 -22 19 -8 35 -17 35 -21 0 -6 30
-19 53 -23 4 0 11 -5 15 -11 4 -5 16 -12 27 -13 11 -2 32 -13 46 -23 15 -10
34 -19 43 -19 9 0 16 -4 16 -10 0 -5 5 -10 10 -10 6 0 57 -22 113 -50 57 -27
108 -50 115 -50 7 0 12 -4 12 -10 0 -5 5 -10 11 -10 5 0 40 -15 77 -32 37 -18
73 -33 81 -35 8 -1 17 -6 20 -12 5 -7 16 -6 33 3 15 8 29 12 32 8 3 -3 6 0 6
7 0 7 4 10 9 6 5 -3 16 2 24 10 9 8 20 15 25 15 6 0 34 12 64 27 29 15 59 28
67 29 8 2 17 8 21 14 4 7 11 12 16 12 5 1 47 19 94 41 47 22 88 40 93 39 4 -1
7 3 7 9 0 5 4 8 9 5 5 -3 14 1 21 9 7 8 17 12 23 8 5 -3 15 0 21 8 11 14 100
60 112 58 4 0 10 3 13 8 3 5 36 24 74 43 37 19 67 38 67 43 0 4 4 6 8 3 5 -3
19 4 30 15 12 11 22 17 22 14 0 -3 20 8 44 25 25 16 50 30 56 30 6 0 9 4 6 9
-3 4 7 14 21 20 15 7 33 21 41 32 7 10 17 19 23 19 5 0 18 9 29 20 11 11 17
20 14 20 -3 0 15 18 41 40 25 22 45 42 45 45 -1 3 15 25 35 49 19 24 35 48 35
55 0 7 4 10 9 7 5 -4 12 7 16 24 4 16 11 30 16 30 5 0 9 6 9 14 0 7 7 19 15
26 8 7 12 16 9 21 -3 5 0 9 5 9 6 0 10 3 9 8 -1 4 6 25 16 47 10 22 19 46 20
53 1 8 7 17 12 20 5 4 9 17 8 30 -1 12 2 22 6 22 4 0 7 6 8 13 0 11 4 25 18
80 3 12 6 32 7 45 1 12 6 22 12 23 5 0 0 4 -12 9 -12 5 -31 7 -43 5 -11 -2
-20 2 -20 8 -1 7 -10 1 -21 -12 -11 -13 -18 -30 -15 -38 3 -7 1 -13 -4 -13 -5
0 -6 -7 -3 -17 4 -9 2 -14 -3 -10 -6 3 -10 -4 -11 -16 -1 -35 -12 -80 -20 -86
-5 -3 -9 -13 -10 -21 -2 -31 -16 -60 -26 -53 -6 3 -7 1 -3 -5 9 -15 -63 -151
-106 -202 -7 -8 -13 -17 -13 -20 1 -3 -13 -19 -31 -36 -17 -18 -34 -39 -37
-48 -4 -10 -11 -14 -17 -11 -5 3 -10 -1 -10 -9 0 -9 -5 -16 -10 -16 -6 0 -23
-12 -38 -27 -52 -51 -90 -82 -96 -76 -3 4 -6 2 -6 -4 0 -6 -16 -18 -35 -27
-19 -9 -35 -22 -35 -28 0 -6 -3 -9 -6 -6 -3 4 -42 -15 -87 -41 -45 -25 -104
-57 -132 -71 -27 -14 -53 -29 -57 -35 -4 -5 -8 -7 -8 -3 0 4 -34 -11 -75 -33
-41 -23 -75 -38 -75 -34 0 3 -7 -1 -16 -9 -8 -9 -27 -19 -42 -22 -15 -4 -33
-13 -39 -22 -7 -9 -13 -12 -13 -8 0 4 -12 0 -27 -8 -16 -8 -46 -23 -68 -32
-22 -10 -43 -22 -46 -27 -3 -5 -10 -9 -15 -9 -5 0 -19 -4 -32 -9 -13 -5 -28
-9 -33 -9 -6 0 -7 -5 -3 -12 5 -8 2 -9 -9 -5 -10 4 -17 1 -17 -5 0 -6 -3 -8
-7 -5 -3 4 -12 2 -19 -4 -8 -7 -14 -7 -19 1 -3 5 -15 10 -26 10 -10 0 -19 4
-19 8 0 5 -18 14 -40 21 -22 6 -40 16 -40 22 0 6 -4 8 -9 4 -5 -3 -12 -1 -16
5 -4 6 -11 8 -16 5 -5 -4 -9 -1 -9 5 0 6 -4 8 -10 5 -5 -3 -10 -1 -10 4 0 6
-3 10 -7 9 -5 -1 -22 5 -39 15 -17 9 -34 13 -38 10 -3 -4 -6 -1 -6 6 0 7 -4 9
-10 6 -5 -3 -10 -2 -10 4 0 6 -11 13 -25 17 -14 3 -25 10 -25 16 0 5 -4 6 -10
3 -5 -3 -10 -1 -10 5 0 6 -5 8 -10 5 -6 -3 -17 1 -26 9 -8 9 -24 16 -35 16
-10 0 -19 4 -19 8 0 9 -70 42 -89 42 -6 0 -14 7 -17 15 -4 8 -10 13 -14 10 -5
-3 -11 -1 -15 5 -4 6 -11 8 -16 5 -5 -4 -9 -2 -9 3 0 4 -27 21 -60 37 -33 16
-60 32 -60 37 0 4 -7 8 -15 8 -21 0 -176 104 -227 152 -15 15 -28 25 -28 21 0
-3 -11 7 -25 23 -14 16 -25 33 -25 37 0 5 -3 6 -7 4 -5 -3 -14 1 -21 9 -7 8
-10 14 -7 14 5 0 -24 37 -52 66 -7 7 -13 17 -13 23 0 6 -4 11 -10 11 -5 0 -10
6 -10 14 0 8 -3 16 -8 18 -10 4 -94 168 -86 168 4 0 1 7 -6 15 -7 8 -9 15 -5
15 4 0 3 6 -3 13 -6 7 -13 25 -16 40 -2 15 -7 30 -10 35 -3 5 -8 23 -11 40
-11 64 -23 83 -49 78 -14 -2 -27 1 -29 7 -2 8 -6 7 -11 -1z"/>
<path d="M1310 2061 c0 -6 -12 -9 -27 -8 -22 2 -29 -3 -31 -20 -2 -13 1 -23 5
-23 5 0 9 -10 10 -22 1 -31 10 -63 22 -86 6 -11 7 -22 4 -26 -3 -3 -1 -6 5 -6
7 0 12 -6 12 -13 0 -7 10 -33 22 -58 12 -24 21 -47 20 -51 -1 -5 3 -8 8 -8 6
0 10 -7 10 -15 0 -8 5 -15 12 -15 6 0 9 -3 5 -6 -3 -4 -1 -12 6 -20 26 -29 37
-43 37 -49 0 -20 152 -166 220 -211 22 -15 40 -30 40 -34 0 -4 6 -7 13 -7 6 0
31 -12 54 -26 24 -15 47 -27 52 -27 5 0 11 -3 13 -7 2 -5 35 -24 73 -43 39
-19 73 -39 77 -45 4 -5 8 -6 8 -1 0 5 8 2 18 -7 10 -10 22 -14 25 -10 4 3 7 0
7 -7 0 -7 3 -10 6 -7 4 4 20 -3 35 -14 16 -11 29 -17 29 -13 0 3 7 0 16 -7 9
-7 23 -14 32 -16 9 -1 18 -7 20 -13 2 -5 8 -8 13 -4 5 3 9 0 9 -5 0 -6 9 -11
20 -11 11 0 20 -5 20 -12 0 -6 3 -9 6 -6 3 4 30 -7 61 -23 30 -16 61 -29 69
-29 8 0 14 -4 14 -10 0 -5 3 -9 8 -8 4 1 30 -9 57 -23 52 -27 57 -27 115 -1
19 8 38 14 43 14 4 -1 7 2 7 8 0 6 3 9 8 8 4 0 43 16 87 37 44 22 83 38 88 37
4 -1 7 3 7 9 0 5 5 7 10 4 6 -3 10 -2 10 3 0 5 10 13 23 17 12 4 24 8 27 9 3
1 42 21 87 44 46 23 86 42 89 41 4 0 10 3 13 8 3 5 33 22 66 38 33 17 62 33
65 37 3 4 17 12 30 18 14 5 39 19 55 30 17 11 37 23 45 27 8 3 19 12 23 20 4
7 15 13 22 13 8 0 15 5 15 12 0 6 3 9 6 5 3 -3 19 8 35 24 15 16 31 29 34 29
9 0 45 40 45 51 0 5 5 7 10 4 6 -3 10 -1 10 4 0 6 14 23 30 38 17 14 30 32 30
39 0 6 7 15 16 18 8 3 12 10 9 16 -3 5 -2 10 2 10 5 0 20 22 34 50 13 27 28
50 32 50 5 0 6 4 2 9 -3 5 -1 12 5 16 5 3 10 15 10 26 0 10 4 19 9 19 5 0 12
16 15 35 4 19 12 35 19 35 7 0 6 4 -3 10 -12 8 -12 10 -1 10 8 0 12 3 8 6 -3
3 -2 17 3 30 25 65 18 86 -26 80 -11 -2 -22 2 -26 8 -5 6 -8 7 -8 1 0 -11
-140 -12 -158 -1 -7 4 -12 3 -12 -2 0 -11 -50 -9 -68 2 -7 4 -12 3 -12 -2 0
-11 -50 -9 -68 2 -7 4 -12 3 -12 -2 0 -11 -50 -9 -68 2 -7 4 -12 4 -12 -1 0
-12 -173 -10 -183 2 -6 7 -10 7 -13 0 -5 -11 -295 -12 -313 -1 -6 4 -11 4 -11
-1 0 -12 -294 -10 -302 2 -5 7 -10 7 -15 0 -5 -6 -68 -10 -153 -10 -84 0 -148
4 -153 10 -6 7 -10 7 -13 0 -5 -12 -175 -12 -193 -1 -6 4 -11 3 -11 -1 0 -10
-96 -11 -106 -1 -4 4 -15 3 -25 -3 -14 -7 -19 -6 -19 3 0 9 -3 9 -8 2 -8 -11
-51 -12 -70 0 -7 4 -12 3 -12 -1 0 -12 -93 -10 -102 2 -5 7 -11 7 -15 0 -10
-12 -103 -15 -103 -2 0 4 -5 5 -12 1 -16 -10 -108 -12 -108 -2 0 4 -4 8 -10 8
-5 0 -10 -4 -10 -9z"/>
</g>
</svg>
